<svg height="249" viewBox="0 0 350 249" width="350" xmlns="http://www.w3.org/2000/svg" xmlns:xlink="http://www.w3.org/1999/xlink"><mask id="a" fill="#fff"><path d="m68.7246094 6.921875c2.4459635-4.23372396 6.633789-6.35058594 12.5634765-6.35058594s10.5625 2.11686198 13.8984375 6.35058594l63.1953126 94.609375 52.958984-76.0400391c3.244792-5.0957031 8.469076-7.6435546 15.672852-7.6435546s12.558919 2.5478515 16.06543 7.6435546l59.953125 88.5820311h-303.032227z" fill="#fff" fill-rule="evenodd"/></mask><mask id="b" fill="#fff"><path d="m31 0c3.0663995 0 5.5317203 2.68305046 7.3959625 8.04915139l20.79792 58.79616051c3.74149 8.09715 3.74149 13.4124698 0 15.9459595-3.7414899 2.5334897-13.299881-.2420797-28.6751732-8.3267083-16.6874833 8.6202648-26.2506659 11.3958342-28.68954784 8.3267083-2.43888195-3.0691259-2.43888195-8.3844457 0-15.9459595l21.96020504-58.79616051c1.7406895-5.36610093 4.144234-8.04915139 7.2106335-8.04915139z" fill="#fff" fill-rule="evenodd"/></mask><mask id="c" fill="#fff"><path d="m23.7423096 0c2.2750706 0 4.1041796 1.98034677 5.487327 5.94104031l15.4307149 43.39716609c2.7759441 5.9764678 2.7759441 9.8996801 0 11.7696368-2.7759442 1.8699567-9.8676537-.1786779-21.2751286-6.1459038-12.381036 6.3625764-19.47630048 8.411211-21.28579354 6.1459038-1.80949305-2.2653072-1.80949305-6.1885195 0-11.7696368l16.29305534-43.39716609c1.2914793-3.96069354 3.0747543-5.94104031 5.3498249-5.94104031z" fill="#fff" fill-rule="evenodd"/></mask><mask id="d" fill="#fff"><path d="m14.7423096 0c1.4582519 0 2.6306559 1.25553385 3.5172119 3.76660156l9.890625 27.51367184c1.7792969 3.7890625 1.7792969 6.2763672 0 7.4619141s-6.3248698-.1132812-13.6367188-3.8964844c-7.93587236 4.0338542-12.48372392 5.3326823-13.64355465 3.8964844s-1.15983073-3.9235026 0-7.4619141l10.44335935-27.51367184c.8277995-2.51106771 1.9708252-3.76660156 3.4290772-3.76660156z" fill="#fff" fill-rule="evenodd"/></mask><mask id="e" fill="#fff"><path d="m31 0c3.0663995 0 5.5317203 2.68305046 7.3959625 8.04915139l20.79792 58.79616051c3.74149 8.09715 3.74149 13.4124698 0 15.9459595-3.7414899 2.5334897-13.299881-.2420797-28.6751732-8.3267083-16.6874833 8.6202648-26.2506659 11.3958342-28.68954784 8.3267083-2.43888195-3.0691259-2.43888195-8.3844457 0-15.9459595l21.96020504-58.79616051c1.7406895-5.36610093 4.144234-8.04915139 7.2106335-8.04915139z" fill="#fff" fill-rule="evenodd"/></mask><mask id="f" fill="#fff"><path d="m23.7423096 0c2.2750706 0 4.1041796 1.98034677 5.487327 5.94104031l15.4307149 43.39716609c2.7759441 5.9764678 2.7759441 9.8996801 0 11.7696368-2.7759442 1.8699567-9.8676537-.1786779-21.2751286-6.1459038-12.381036 6.3625764-19.47630048 8.411211-21.28579354 6.1459038-1.80949305-2.2653072-1.80949305-6.1885195 0-11.7696368l16.29305534-43.39716609c1.2914793-3.96069354 3.0747543-5.94104031 5.3498249-5.94104031z" fill="#fff" fill-rule="evenodd"/></mask><mask id="g" fill="#fff"><path d="m14.7423096 0c1.4582519 0 2.6306559 1.25553385 3.5172119 3.76660156l9.890625 27.51367184c1.7792969 3.7890625 1.7792969 6.2763672 0 7.4619141s-6.3248698-.1132812-13.6367188-3.8964844c-7.93587236 4.0338542-12.48372392 5.3326823-13.64355465 3.8964844s-1.15983073-3.9235026 0-7.4619141l10.44335935-27.51367184c.8277995-2.51106771 1.9708252-3.76660156 3.4290772-3.76660156z" fill="#fff" fill-rule="evenodd"/></mask><mask id="h" fill="#fff"><path d="m31 0c3.0663995 0 5.5317203 2.68305046 7.3959625 8.04915139l20.79792 58.79616051c3.74149 8.09715 3.74149 13.4124698 0 15.9459595-3.7414899 2.5334897-13.299881-.2420797-28.6751732-8.3267083-16.6874833 8.6202648-26.2506659 11.3958342-28.68954784 8.3267083-2.43888195-3.0691259-2.43888195-8.3844457 0-15.9459595l21.96020504-58.79616051c1.7406895-5.36610093 4.144234-8.04915139 7.2106335-8.04915139z" fill="#fff" fill-rule="evenodd"/></mask><mask id="i" fill="#fff"><path d="m23.7423096 0c2.2750706 0 4.1041796 1.98034677 5.487327 5.94104031l15.4307149 43.39716609c2.7759441 5.9764678 2.7759441 9.8996801 0 11.7696368-2.7759442 1.8699567-9.8676537-.1786779-21.2751286-6.1459038-12.381036 6.3625764-19.47630048 8.411211-21.28579354 6.1459038-1.80949305-2.2653072-1.80949305-6.1885195 0-11.7696368l16.29305534-43.39716609c1.2914793-3.96069354 3.0747543-5.94104031 5.3498249-5.94104031z" fill="#fff" fill-rule="evenodd"/></mask><mask id="j" fill="#fff"><path d="m14.7423096 0c1.4582519 0 2.6306559 1.25553385 3.5172119 3.76660156l9.890625 27.51367184c1.7792969 3.7890625 1.7792969 6.2763672 0 7.4619141s-6.3248698-.1132812-13.6367188-3.8964844c-7.93587236 4.0338542-12.48372392 5.3326823-13.64355465 3.8964844s-1.15983073-3.9235026 0-7.4619141l10.44335935-27.51367184c.8277995-2.51106771 1.9708252-3.76660156 3.4290772-3.76660156z" fill="#fff" fill-rule="evenodd"/></mask><mask id="k" fill="#fff"><path d="m26 0c2.5718189 0 4.6395074 2.23587539 6.2030654 6.70762616l17.4434167 48.99680044c3.1380239 6.747625 3.1380239 11.1770582 0 13.2882996-3.1380238 2.1112414-11.1547389-.2017331-24.0501453-6.9389236-13.9959537 7.183554-22.0166875 9.4965285-24.06220138 6.9389236-2.04551389-2.557605-2.04551389-6.9870381 0-13.2882996l18.41823648-48.99680044c1.4599331-4.47175077 3.4758092-6.70762616 6.0476281-6.70762616z" fill="#fff" fill-rule="evenodd"/></mask><mask id="l" fill="#fff"><path d="m19.7010654 0c1.8878245 0 3.4055958 1.660936 4.5533139 4.982808l12.8042102 36.3976232c2.303443 5.0125214 2.303443 8.3029575 0 9.8713082-2.303443 1.5683508-8.188053-.1498588-17.6538301-5.1546289-10.27362557 5.3363544-16.16118548 7.054564-17.66267972 5.1546289-1.50149423-1.899935-1.50149423-5.1903711 0-9.8713082l13.51976932-36.3976232c1.0716531-3.321872 2.5513919-4.982808 4.4392164-4.982808z" fill="#fff" fill-rule="evenodd"/></mask><mask id="m" fill="#fff"><path d="m12.285258 0c1.2152099 0 2.1922132 1.03581543 2.9310099 3.10744629l8.2421875 22.69877931c1.4827474 3.1259765 1.4827474 5.1780029 0 6.1560791s-5.2707248-.093457-11.3639323-3.2145996c-6.61322698 3.3279297-10.40310329 4.3994629-11.36962889 3.2145996-.96652561-1.1848633-.96652561-3.2368897 0-6.1560791l8.70279947-22.69877931c.68983292-2.07163086 1.64235432-3.10744629 2.85756432-3.10744629z" fill="#fff" fill-rule="evenodd"/></mask><mask id="n" fill="#fff"><path d="m82.5 41c0-22.6436747-18.3563253-41-41-41s-41 18.3563253-41 41 82 22.6436747 82 0z" fill="#fff" fill-rule="evenodd"/></mask><mask id="o" fill="#fff"><path d="m45 22.627417c0-12.4967773-10.0735931-22.627417-22.5-22.627417s-22.5 10.1306397-22.5 22.627417 45 12.4967773 45 0z" fill="#fff" fill-rule="evenodd"/></mask><mask id="p" fill="#fff"><path d="m35 17.6776695c0-9.76310726-7.8350169-17.6776695-17.5-17.6776695-9.66498312 0-17.5 7.91456224-17.5 17.6776695 0 9.7631073 35 9.7631073 35 0z" fill="#fff" fill-rule="evenodd"/></mask><mask id="q" fill="#fff"><path d="m25.2937234 74.459554c-17.52832027-41.1208224-25.76269527-65.94067379-24.70312496-74.459554 7.86002604 3.52441406 14.68522136 5.13460286 20.47558596 4.83056641 5.7903646-.30403646 10.1808268-.79117839 13.1713867-1.46142579l36.0717773 55.91308598c6.9127605-2.0364584 9.6692709.5717773 8.2695313 7.824707s-8.1642253 7.6471354-20.293457 1.1826172l-30.3613282-40.8320313c3.4436849 19.3352865 5.9031576 30.5979818 7.378418 33.788086 4.5029297-1.5449219 7.7355143-.8530274 9.6977539 2.0756836 1.9622396 2.9287109-.0330404 6.6414659-5.9858398 11.1382649z" fill="#fff" fill-rule="evenodd"/></mask><mask id="r" fill="#fff"><path d="m41.3587551 75.1806648 3.4321289-17.984375c3.6119849 14.2939454 6.1871802 22.6743165 7.725586 25.1411133l6.934082-2.0791015c-1.5459098-14.8769532-3.0880676-23.6682943-4.6264734-26.3740235-.0205021-14.1477864-3.8640865-23.8372396-11.5307532-29.0683593 1.167608-17.69724572-2.5526336-25.92901963-11.1607248-24.69532177-8.6080913 1.23369786-11.4208251 8.50907576-8.4382016 21.82613367-9.7424262 1.4730721-16.03164484 8.3423129-18.867656 20.6077224-2.83601117 12.2654096-4.4449255 28.111357-4.826743 47.5378424l9.27097364-1.0537329 1.94174526-16.0686454c6.4539898 2.3235664 11.384091 3.6102462 14.7903037 3.8600394 3.4062127.2497933 8.5247902-.2999706 15.3557325-1.6492918z" fill="#fff" fill-rule="evenodd"/></mask><g fill="none" fill-rule="evenodd" transform="translate(1 1)"><g transform="translate(29 42)"><path d="m67.8705527 6.40119527c2.6378563-4.54933133 7.1589061-6.82990621 13.4175332-6.82990621 6.2279725 0 11.1528306 2.2503058 14.729991 6.7951412l62.3810251 93.39030884 52.098212-74.8026477c3.438936-5.4005914 8.987177-8.1064351 16.516358-8.1064351 7.519217 0 13.18705 2.6966218 16.893583 8.083053l61.009287 90.1425327h-306.7459303z" stroke="#ebb599" stroke-width="2"/><g mask="url(#a)"><g transform="translate(25.182617 -4)"><g fill="#fbf0eb"><rect height="50" rx="6.5" width="13" x="42" y="17"/><rect height="50" rx="6.5" width="13" x="65" y="10"/><rect height="50" rx="6" width="12" x="17" y="7"/><rect height="50" rx="6.5" width="13" x="88" y="7"/><path d="m0 .5h113v50h-113z"/></g><rect fill="#fff" height="50" rx="6.5" width="13" x="29" y="35"/><rect fill="#fff" height="50" rx="5" width="10" x="55" y="42"/><rect fill="#fff" height="50" rx="5" width="10" x="78" y="37"/></g></g><g mask="url(#a)"><g transform="translate(180.182617 6)"><g fill="#fbf0eb"><rect height="50" rx="6.5" width="13" x="40" y="16.5"/><rect height="50" rx="6.5" width="13" x="63" y="9.5"/><rect height="50" rx="6" width="12" x="15" y="6.5"/></g><rect fill="#f5dbcd" height="50" rx="6.5" width="13" x="88" y="7"/><path d="m0 0h113v47h-113z" fill="#fbf0eb"/><rect fill="#fff" height="50" rx="6.5" width="13" x="27" y="34.5"/><rect fill="#fff" height="50" rx="5" width="10" x="53" y="42.5"/><rect fill="#fff" height="50" rx="5" width="10" x="76" y="39.5"/></g></g></g><path d="m18 156h323v13h-323z" fill="#fff"/><g fill="#f0cfbc" transform="translate(284 102)"><path d="m19.625 92h9.75l1.125 27h-12z"/><path d="m24.5 43c2.3739867 0 4.2826222 2.07617 5.7259065 6.22851l16.1016155 45.497029c2.8966373 6.265652 2.8966373 10.378697 0 12.339135-2.8966374 1.960439-10.2966821-.187323-22.2001342-6.443286-12.9193419 6.670443-20.32309614 8.818205-22.2112628 6.443286-1.88816667-2.374919-1.88816667-6.487964 0-12.339135l17.001449-45.497029c1.3476306-4.15234 3.2084393-6.22851 5.582426-6.22851z"/><path d="m24.5 19c1.78049 0 3.2119666 1.5331717 4.2944299 4.5995151l12.0762116 33.597806c2.172478 4.6269428 2.172478 7.6642684 0 9.1119768-2.1724781 1.4477084-7.7225116-.1383312-16.6501006-4.758119-9.6895064 4.9258656-15.24232215 6.5119053-16.65844715 4.758119-1.416125-1.7537862-1.416125-4.7911118 0-9.1119768l12.75108675-33.597806c1.010723-3.0663434 2.4063295-4.5995151 4.1868195-4.5995151z"/><path d="m25 0c1.1375353 0 2.0520898.95823231 2.7436635 2.87469692l7.7153574 20.99862878c1.3879721 2.8918393 1.3879721 4.7901678 0 5.6949855-1.387972.9048178-4.9338268-.086457-10.6375642-2.9738244-6.190518 3.078666-9.7381503 4.0699408-10.6428968 2.9738244s-.9047465-2.9944449 0-5.6949855l8.1465277-20.99862878c.6457396-1.91646461 1.5373771-2.87469692 2.6749124-2.87469692z"/></g><g fill="#f0cfbc" transform="translate(241.5 119)"><path d="m16.9375 80h8.125l.9375 23h-10z"/><path d="m20.5 37c2.0277803 0 3.6580731 1.7887003 4.8908785 5.3661009l13.7534632 39.1974404c2.4742111 5.3980999 2.4742111 8.9416465 0 10.6306396-2.4742111 1.6889932-8.7950826-.1613865-18.9626146-5.5511388-11.03527119 5.7468431-17.3593113 7.5972228-18.97212033 5.5511388-1.61280903-2.0460839-1.61280903-5.5896305 0-10.6306396l14.52207103-39.1974404c1.1511012-3.5774006 2.7405419-5.3661009 4.7683222-5.3661009z"/><path d="m20.5 16c1.5331997 0 2.7658602 1.3415252 3.6979813 4.0245757l10.39896 29.3980803c1.8707449 4.0485749 1.8707449 6.7062349 0 7.9729797-1.870745 1.2667449-6.6499406-.1210399-14.3375867-4.1633542-8.3437416 4.3101324-13.1253329 5.6979172-14.34477387 4.1633542s-1.21944097-4.1922229 0-7.9729797l10.98010247-29.3980803c.8703448-2.6830505 2.0721171-4.0245757 3.6053168-4.0245757z"/><path d="m21 0c.9891611 0 1.7844259.830468 2.3857944 2.491404l6.7090064 18.1988116c1.2069323 2.5062607 1.2069323 4.1514787 0 4.9356541-1.2069322.7841754-4.2902842-.0749294-9.2500559-2.5773145-5.3830591 2.6681772-8.4679567 3.5272821-9.2546928 2.5773145-.7867361-.9499675-.7867361-2.5951856 0-4.9356541l7.0839371-18.1988116c.5615127-1.660936 1.3368497-2.491404 2.3260108-2.491404z"/></g><g fill="#f0cfbc" transform="translate(26 87)"><path d="m19.625 92h9.75l1.125 27h-12z"/><path d="m24.5 43c2.3739867 0 4.2826222 2.07617 5.7259065 6.22851l16.1016155 45.497029c2.8966373 6.265652 2.8966373 10.378697 0 12.339135-2.8966374 1.960439-10.2966821-.187323-22.2001342-6.443286-12.9193419 6.670443-20.32309614 8.818205-22.2112628 6.443286-1.88816667-2.374919-1.88816667-6.487964 0-12.339135l17.001449-45.497029c1.3476306-4.15234 3.2084393-6.22851 5.582426-6.22851z"/><path d="m24.5 19c1.78049 0 3.2119666 1.5331717 4.2944299 4.5995151l12.0762116 33.597806c2.172478 4.6269428 2.172478 7.6642684 0 9.1119768-2.1724781 1.4477084-7.7225116-.1383312-16.6501006-4.758119-9.6895064 4.9258656-15.24232215 6.5119053-16.65844715 4.758119-1.416125-1.7537862-1.416125-4.7911118 0-9.1119768l12.75108675-33.597806c1.010723-3.0663434 2.4063295-4.5995151 4.1868195-4.5995151z"/><path d="m25 0c1.1375353 0 2.0520898.95823231 2.7436635 2.87469692l7.7153574 20.99862878c1.3879721 2.8918393 1.3879721 4.7901678 0 5.6949855-1.387972.9048178-4.9338268-.086457-10.6375642-2.9738244-6.190518 3.078666-9.7381503 4.0699408-10.6428968 2.9738244s-.9047465-2.9944449 0-5.6949855l8.1465277-20.99862878c.6457396-1.91646461 1.5373771-2.87469692 2.6749124-2.87469692z"/></g><g transform="translate(286 85)"><path d="m24.4790304 105.5-1.4571429 34h14.956225l-1.4571429-34z" fill="#fbf0eb" stroke="#eec9b5"/><g transform="translate(0 56)"><path d="m30.5166888 75.0282419c-16.8322523 8.675233-26.4078018 11.435551-29.07898119 8.0740984-2.56954243-3.233551-2.56954243-8.7055914-.07694175-16.4319729l21.95299784-58.77549502c1.7998887-5.54859686 4.3496544-8.39487238 7.6862363-8.39487238 3.3319203 0 5.9420989 2.84070161 7.867341 8.38241105l20.7804285 58.75317105c3.831898 8.2928065 3.831898 13.857483-.1735439 16.5697035-3.9504018 2.674951-13.5321317-.0884731-28.9575368-8.1770437z" stroke="#ecb99f"/><path d="m29 4c2.9180253 0 5.2640564 2.55528615 7.0380934 7.6658585l19.791569 55.9963433c3.5604501 7.7115714 3.5604501 12.7737808 0 15.1866281s-12.6563384-.2305521-27.2876649-7.9301984c-15.8800244 8.209776-24.98047233 10.8531755-27.30134386 7.9301984-2.32087152-2.922977-2.32087152-7.9851864 0-15.1866281l20.89761446-55.9963433c1.6564626-5.11057235 3.9437066-7.6658585 6.8617319-7.6658585z" fill="#fff" mask="url(#b)"/></g><g transform="translate(7 24.653906)"><path d="m23.3832215 55.5249472c-12.525776 6.4173932-19.63319689 8.450412-21.67445801 5.894954-1.94111181-2.430081-1.94111181-6.5108731-.07743089-12.2574373l16.2857854-43.37642834c1.3508839-4.1428749 3.2807705-6.28603556 5.8251916-6.28603556 2.5397583 0 4.5140893 2.13757628 5.9584323 6.27352958l15.4130805 43.35404902c2.8670038 6.1725145 2.8670038 10.3463595-.1741252 12.3949524-2.9838618 2.010016-10.0989638-.0263543-21.5564757-5.9975838z" stroke="#ecb99f"/><path d="m22 3.34609389c2.1761545 0 3.925737 1.88452354 5.2487476 5.65357062l14.7598142 41.29730319c2.6552509 5.6872839 2.6552509 9.4206633 0 11.2001382-2.6552509 1.779475-9.4386253-.1700321-20.350123-5.8485213-11.84273002 6.0547098-18.62950477 8.0042169-20.36032422 5.8485213-1.73081944-2.1556955-1.73081944-5.8890749 0-11.2001382l15.58466162-41.29730319c1.2353281-3.76904708 2.9410693-5.65357062 5.1172238-5.65357062z" fill="#fff" mask="url(#c)"/></g><g transform="translate(16)"><path d="m14.5114675 35.4073181c-8.08052319 4.088334-12.64011565 5.3708069-14.03058825 3.6490092-1.29348349-1.6016978-1.29348349-4.2484078-.07846473-7.953487l10.43595558-27.49278201c.887641-2.69259248 2.178088-4.11005829 3.9039395-4.11005829 1.7211867 0 3.0395665 1.41186009 3.9877335 4.09745829l9.8726871 27.47028741c1.8717418 3.9859266 1.8717418 6.7265657-.175339 8.0905372-1.9851194 1.3226866-6.5542069.0363608-13.9159237-3.7509648z" stroke="#ecb99f"/><path d="m11.9846191 1.5c1.4342837 0 2.5874176 1.21376092 3.4594019 3.64128277l9.7280593 26.59826313c1.7500518 3.6629964 1.7500518 6.0675458 0 7.2136483-1.7500517 1.1461025-6.2209121-.1095123-13.412581-3.7668442-7.80543574 3.8996436-12.27853728 5.1552583-13.41930464 3.7668442s-1.14076736-3.7929635 0-7.2136483l10.2717088-26.59826313c.81419349-2.42752185 1.93843204-3.64128277 3.37271564-3.64128277z" fill="#fff" mask="url(#d)"/></g><g fill="#fbf0eb"><circle cx="37" cy="32" r="2"/><circle cx="31" cy="60" r="2"/><circle cx="39" cy="66" r="2"/><circle cx="15" cy="117" r="2"/><circle cx="18" cy="100" r="2"/></g></g><g transform="translate(0 71)"><path d="m24.4790304 105.5-1.4571429 34h14.956225l-1.4571429-34z" fill="#fbf0eb" stroke="#eec9b5"/><g transform="translate(0 56)"><path d="m30.5166888 75.0282419c-16.8322523 8.675233-26.4078018 11.435551-29.07898119 8.0740984-2.56954243-3.233551-2.56954243-8.7055914-.07694175-16.4319729l21.95299784-58.77549502c1.7998887-5.54859686 4.3496544-8.39487238 7.6862363-8.39487238 3.3319203 0 5.9420989 2.84070161 7.867341 8.38241105l20.7804285 58.75317105c3.831898 8.2928065 3.831898 13.857483-.1735439 16.5697035-3.9504018 2.674951-13.5321317-.0884731-28.9575368-8.1770437z" stroke="#ecb99f"/><path d="m29 4c2.9180253 0 5.2640564 2.55528615 7.0380934 7.6658585l19.791569 55.9963433c3.5604501 7.7115714 3.5604501 12.7737808 0 15.1866281s-12.6563384-.2305521-27.2876649-7.9301984c-15.8800244 8.209776-24.98047233 10.8531755-27.30134386 7.9301984-2.32087152-2.922977-2.32087152-7.9851864 0-15.1866281l20.89761446-55.9963433c1.6564626-5.11057235 3.9437066-7.6658585 6.8617319-7.6658585z" fill="#fff" mask="url(#e)"/></g><g transform="translate(7 24.653906)"><path d="m23.3832215 55.5249472c-12.525776 6.4173932-19.63319689 8.450412-21.67445801 5.894954-1.94111181-2.430081-1.94111181-6.5108731-.07743089-12.2574373l16.2857854-43.37642834c1.3508839-4.1428749 3.2807705-6.28603556 5.8251916-6.28603556 2.5397583 0 4.5140893 2.13757628 5.9584323 6.27352958l15.4130805 43.35404902c2.8670038 6.1725145 2.8670038 10.3463595-.1741252 12.3949524-2.9838618 2.010016-10.0989638-.0263543-21.5564757-5.9975838z" stroke="#ecb99f"/><path d="m22 3.34609389c2.1761545 0 3.925737 1.88452354 5.2487476 5.65357062l14.7598142 41.29730319c2.6552509 5.6872839 2.6552509 9.4206633 0 11.2001382-2.6552509 1.779475-9.4386253-.1700321-20.350123-5.8485213-11.84273002 6.0547098-18.62950477 8.0042169-20.36032422 5.8485213-1.73081944-2.1556955-1.73081944-5.8890749 0-11.2001382l15.58466162-41.29730319c1.2353281-3.76904708 2.9410693-5.65357062 5.1172238-5.65357062z" fill="#fff" mask="url(#f)"/></g><g transform="translate(16)"><path d="m14.5114675 35.4073181c-8.08052319 4.088334-12.64011565 5.3708069-14.03058825 3.6490092-1.29348349-1.6016978-1.29348349-4.2484078-.07846473-7.953487l10.43595558-27.49278201c.887641-2.69259248 2.178088-4.11005829 3.9039395-4.11005829 1.7211867 0 3.0395665 1.41186009 3.9877335 4.09745829l9.8726871 27.47028741c1.8717418 3.9859266 1.8717418 6.7265657-.175339 8.0905372-1.9851194 1.3226866-6.5542069.0363608-13.9159237-3.7509648z" stroke="#ecb99f"/><path d="m11.9846191 1.5c1.4342837 0 2.5874176 1.21376092 3.4594019 3.64128277l9.7280593 26.59826313c1.7500518 3.6629964 1.7500518 6.0675458 0 7.2136483-1.7500517 1.1461025-6.2209121-.1095123-13.412581-3.7668442-7.80543574 3.8996436-12.27853728 5.1552583-13.41930464 3.7668442s-1.14076736-3.7929635 0-7.2136483l10.2717088-26.59826313c.81419349-2.42752185 1.93843204-3.64128277 3.37271564-3.64128277z" fill="#fff" mask="url(#g)"/></g><g fill="#fbf0eb"><circle cx="37" cy="32" r="2"/><circle cx="28" cy="54" r="2"/><circle cx="39" cy="66" r="2"/><circle cx="30" cy="116" r="2"/><circle cx="28" cy="98" r="2"/></g></g><g transform="translate(31 75)"><path d="m24.4790304 105.5-1.4571429 34h14.956225l-1.4571429-34z" fill="#fbf0eb" stroke="#eec9b5"/><g transform="translate(0 56)"><path d="m30.5166888 75.0282419c-16.8322523 8.675233-26.4078018 11.435551-29.07898119 8.0740984-2.56954243-3.233551-2.56954243-8.7055914-.07694175-16.4319729l21.95299784-58.77549502c1.7998887-5.54859686 4.3496544-8.39487238 7.6862363-8.39487238 3.3319203 0 5.9420989 2.84070161 7.867341 8.38241105l20.7804285 58.75317105c3.831898 8.2928065 3.831898 13.857483-.1735439 16.5697035-3.9504018 2.674951-13.5321317-.0884731-28.9575368-8.1770437z" stroke="#ecb99f"/><path d="m29 4c2.9180253 0 5.2640564 2.55528615 7.0380934 7.6658585l19.791569 55.9963433c3.5604501 7.7115714 3.5604501 12.7737808 0 15.1866281s-12.6563384-.2305521-27.2876649-7.9301984c-15.8800244 8.209776-24.98047233 10.8531755-27.30134386 7.9301984-2.32087152-2.922977-2.32087152-7.9851864 0-15.1866281l20.89761446-55.9963433c1.6564626-5.11057235 3.9437066-7.6658585 6.8617319-7.6658585z" fill="#fff" mask="url(#h)"/></g><g transform="translate(7 24.653906)"><path d="m23.3832215 55.5249472c-12.525776 6.4173932-19.63319689 8.450412-21.67445801 5.894954-1.94111181-2.430081-1.94111181-6.5108731-.07743089-12.2574373l16.2857854-43.37642834c1.3508839-4.1428749 3.2807705-6.28603556 5.8251916-6.28603556 2.5397583 0 4.5140893 2.13757628 5.9584323 6.27352958l15.4130805 43.35404902c2.8670038 6.1725145 2.8670038 10.3463595-.1741252 12.3949524-2.9838618 2.010016-10.0989638-.0263543-21.5564757-5.9975838z" stroke="#ecb99f"/><path d="m22 3.34609389c2.1761545 0 3.925737 1.88452354 5.2487476 5.65357062l14.7598142 41.29730319c2.6552509 5.6872839 2.6552509 9.4206633 0 11.2001382-2.6552509 1.779475-9.4386253-.1700321-20.350123-5.8485213-11.84273002 6.0547098-18.62950477 8.0042169-20.36032422 5.8485213-1.73081944-2.1556955-1.73081944-5.8890749 0-11.2001382l15.58466162-41.29730319c1.2353281-3.76904708 2.9410693-5.65357062 5.1172238-5.65357062z" fill="#fff" mask="url(#i)"/></g><g transform="translate(16)"><path d="m14.5114675 35.4073181c-8.08052319 4.088334-12.64011565 5.3708069-14.03058825 3.6490092-1.29348349-1.6016978-1.29348349-4.2484078-.07846473-7.953487l10.43595558-27.49278201c.887641-2.69259248 2.178088-4.11005829 3.9039395-4.11005829 1.7211867 0 3.0395665 1.41186009 3.9877335 4.09745829l9.8726871 27.47028741c1.8717418 3.9859266 1.8717418 6.7265657-.175339 8.0905372-1.9851194 1.3226866-6.5542069.0363608-13.9159237-3.7509648z" stroke="#ecb99f"/><path d="m11.9846191 1.5c1.4342837 0 2.5874176 1.21376092 3.4594019 3.64128277l9.7280593 26.59826313c1.7500518 3.6629964 1.7500518 6.0675458 0 7.2136483-1.7500517 1.1461025-6.2209121-.1095123-13.412581-3.7668442-7.80543574 3.8996436-12.27853728 5.1552583-13.41930464 3.7668442s-1.14076736-3.7929635 0-7.2136483l10.2717088-26.59826313c.81419349-2.42752185 1.93843204-3.64128277 3.37271564-3.64128277z" fill="#fff" mask="url(#j)"/></g><g fill="#fbf0eb"><circle cx="33" cy="22" r="2"/><circle cx="31" cy="60" r="2"/><circle cx="39" cy="66" r="2"/><circle cx="45" cy="127" r="2"/><circle cx="38" cy="100" r="2"/></g></g><g transform="translate(228 104)"><path d="m20.6981784 88.5-1.1767241 28h11.9570914l-1.1767241-28z" fill="#fbf0eb" stroke="#eec9b5"/><g transform="translate(0 47)"><path d="m25.5943324 62.6166857c-14.1408374 7.2383672-22.17329995 9.5358456-24.45067384 6.6883349-2.17736253-2.7224616-2.17736253-7.3096809-.07754804-13.7765278l18.41095138-48.97604541c1.5193871-4.65385718 3.6819676-7.05244739 6.5229381-7.05244739 2.8363075 0 5.0493045 2.39300337 6.6741049 7.03993074l17.4257482 48.95365296c3.2292398 6.9437647 3.2292398 11.6241364-.1742638 13.9139908-3.3459248 2.2511159-11.3858011-.0496851-24.3312569-6.7908888z" stroke="#ecb99f"/><path d="m24.3225806 3.33333333c2.4473761 0 4.4150151 2.12940513 5.9029171 6.38821539l16.5993805 46.66361948c2.9861839 6.4263095 2.9861839 10.6448173 0 12.6555234-2.986184 2.0107061-10.6149936-.1921268-22.8864287-6.6084987-13.3187301 6.84148-20.95136387 9.0443129-22.89790128 6.6084987s-1.94653741-6.654322 0-12.6555234l17.52703148-46.66361948c1.3892912-4.25881026 3.3076249-6.38821539 5.7550009-6.38821539z" fill="#fff" mask="url(#k)"/></g><g transform="translate(6 21)"><path d="m19.4027504 46.6613598c-10.41779616 5.3913432-16.31952396 7.09382-18.05295686 4.9003983-1.63114276-2.0639875-1.63114276-5.510237-.07642375-10.3554276l13.51262831-36.37703446c1.1306356-3.50470392 2.7561767-5.32929604 4.9150673-5.32929604 2.1542301 0 3.816468 1.81902956 5.0249797 5.31688212l12.7868693 36.35476958c2.3931637 5.2077625 2.3931637 8.7462054-.1729234 10.4933833-2.5124808 1.7106788-8.421398.0049907-17.9372406-5.0036752z" stroke="#ecb99f"/><path d="m18.2553191 2.80640133c1.8057453 0 3.2575265 1.58056813 4.3553438 4.74170439l12.2475054 34.63644788c2.2032933 4.76998 2.2032933 7.9012015 0 9.3936643s-7.8320507-.1426077-16.8862722-4.9052114c-9.82694626 5.0781437-15.45852531 6.7132141-16.89473719 4.9052114-1.43621188-1.8080028-1.43621188-4.9392242 0-9.3936643l12.93195329-34.63644788c1.0250594-3.16113626 2.4404617-4.74170439 4.2462069-4.74170439z" fill="#fff" mask="url(#l)"/></g><g transform="translate(13)"><path d="m12.0925919 29.3081058c-6.7579447 3.3821237-10.55876298 4.4368883-11.75514196 2.9702478-1.10206403-1.3510197-1.10206403-3.5641455-.07941779-6.6511247l8.69527108-22.67775001c.75008045-2.25255972 1.85075067-3.44947889 3.33195477-3.44947889 1.4765377 0 2.6001924 1.19129471 3.4009858 3.43679265l8.2239674 22.65515115c1.5764797 3.323586 1.5764797 5.6314431-.17644 6.7877351-1.6869084 1.1127484-5.4982337.0537863-11.6411793-3.0715731z" stroke="#ecb99f"/><path d="m9.98718262 1.2375c1.19523638 0 2.15618128 1.00135276 2.88283488 3.00405829l8.1067161 21.94356701c1.4583765 3.0219721 1.4583765 5.0057254 0 5.9512599-1.4583765.9455346-5.1840934-.0903476-11.17715086-3.1076465-6.50452977 3.217206-10.23211439 4.2530882-11.18275386 3.1076465-.95063946-1.1454416-.95063946-3.1291949 0-5.9512599l8.55975734-21.94356701c.67849457-2.00270553 1.61536004-3.00405829 2.8105964-3.00405829z" fill="#fff" mask="url(#m)"/></g><g fill="#fbf0eb"><circle cx="27.5" cy="18.5" r="1.5"/><circle cx="25.5" cy="50.5" r="1.5"/><circle cx="32.5" cy="55.5" r="1.5"/><circle cx="37.5" cy="106.5" r="1.5"/><circle cx="31.5" cy="83.5" r="1.5"/></g></g><g transform="translate(238 180)"><path d="m83 41c0 23.3103414-83 23.3103414-83 0 0-22.9198171 18.5801829-41.5 41.5-41.5s41.5 18.5801829 41.5 41.5z" stroke="#ecbca3"/><path d="m77 42c0-22.6436747-18.3563253-41-41-41s-41 18.3563253-41 41 82 22.6436747 82 0z" fill="#fff" mask="url(#n)"/></g><g transform="translate(8 196)"><path d="m45.5 22.627417c0 13.163444-46 13.163444-46 0 0-12.77228963 10.29681673-23.127417 23-23.127417 12.7031833 0 23 10.35512737 23 23.127417z" stroke="#ecbca3"/><path d="m42 23.627417c0-12.4967773-10.0735931-22.627417-22.5-22.627417-12.42640687 0-22.5 10.1306397-22.5 22.627417s45 12.4967773 45 0z" fill="#fff" mask="url(#o)"/></g><g transform="translate(285 222)"><path d="m35.5 17.6776695c0 10.429774-36 10.429774-36 0 0-10.03812536 8.0577376-18.1776695 18-18.1776695s18 8.13954414 18 18.1776695z" stroke="#ecbca3"/><path d="m32 18.6776695c0-9.76310726-7.8350169-17.6776695-17.5-17.6776695-9.66498312 0-17.5 7.91456224-17.5 17.6776695 0 9.7631073 35 9.7631073 35 0z" fill="#fff" mask="url(#p)"/></g><path d="m221.257662 39h14.776825c3.310342-.8038549 4.965513-2.6007293 4.965513-5.390623s-1.171464-4.9287905-3.514391-6.4166901c0-1.9895356-.748664-3.458821-2.245992-4.407856-1.497328-.9490351-3.413902-.7406431-5.749721.625176-1.730619-2.2733379-3.699214-3.4100069-5.905786-3.4100069-3.309858 0-6.48449 3.732082-4.747893 7.1926869-2.557478 1.2266748-3.836217 3.3655715-3.836217 6.4166901s2.085887 4.8479929 6.257662 5.390623z" fill="#fff" stroke="#ebb79c" stroke-linejoin="round"/><path d="m49.1458131 28h21.5968981c4.8381925-1.1846283 7.2572888-3.8326536 7.2572888-7.944076s-1.7121393-7.2634807-5.1364179-9.4561749c0-2.93194722-1.0942012-5.09720982-3.2826038-6.49578782s-4.9895484-1.09147398-8.4034375.92131207c-2.5293664-3.35018223-5.4065444-5.02527335-8.6315338-5.02527335-4.8374841 0-9.477332 5.49991038-6.939229 10.5997491-3.737852 1.8077313-5.606778 4.9597896-5.606778 9.4561749s3.0486044 7.1444106 9.1458131 7.944076z" fill="#fff" stroke="#ebb79c" stroke-linejoin="round" transform="matrix(-1 0 0 1 118 0)"/><path d="m187.975586 140.5-20.067383 26.164551" stroke="#ebb599" stroke-width="2"/><g transform="translate(93 90)"><path d="m22.6390734 18.7845869c-5.4791249-1.2401803-9.2328031-.5017093-11.2610348 2.2154131-2.02823165 2.7171224-3.7380283 7.9350911-5.12938995 15.6539061 5.30238025-9.5920764 10.76585515-14.3881146 16.39042475-14.3881146.987758-.0652355.987758-1.2256371 0-3.4812046z" fill="#fbf0eb" stroke="#ebb599"/><g transform="translate(7.121184 71.811524)"><path d="m70.4184856 58.9902374c6.9647025-1.9906792 9.8284074.7929818 8.4058646 8.1640694-1.4439124 7.4818167-8.4017459 7.8872899-20.6565122 1.3558655l-.0830332-.0714488-29.7280787-39.9803934c3.2710469 18.2770101 5.6370044 29.1198675 7.0815633 32.4777822 4.4896304-1.482331 7.7689934-.7400561 9.7696694 2.2460226 2.0623316 3.0781018.0032052 6.9096604-6.0428426 11.4769l-.1506896.0505191h-13.8859024l-.0647787-.1519687c-17.55225394-41.1769698-25.78897403-66.00388969-24.72123544-74.5884423l.04174756-.33564787.30862785.13838788c7.82660963 3.50943023 14.61415303 5.11073625 20.36019013 4.80902731 5.7775761-.30336496 10.1555511-.78912138 13.1298216-1.45571797l.1701957-.03814444z" stroke="#e59e92" stroke-width=".5"/><path d="m23.7937234 76.959554c-17.52832027-41.1208224-25.76269527-65.9406738-24.70312496-74.459554 7.86002604 3.52441406 14.68522136 5.13460286 20.47558596 4.83056641 5.7903646-.30403646 10.1808268-.79117839 13.1713867-1.46142578l36.0717773 55.91308597c6.9127605-2.0364584 9.6692709.5717773 8.2695313 7.824707s-8.1642253 7.6471354-20.293457 1.1826172l-30.3613282-40.8320313c3.4436849 19.3352865 5.9031576 30.5979818 7.378418 33.788086 4.5029297-1.5449219 7.7355143-.8530274 9.6977539 2.0756836 1.9622396 2.9287109-.0330404 6.6414659-5.9858398 11.1382649z" fill="#fff" mask="url(#q)"/><path d="m14.0306714 11.1884758c1.475586 6.2222222.8191732 10.2222222-1.9692382 12" mask="url(#q)" stroke="#ebb599"/></g><path d="m11.4233089 73.3110997-1.92783783 15.9535563-9.75103552 1.1082964.00561272-.2855696c.38213104-19.4424377 1.99271555-35.3048345 4.83312102-47.5892488 2.83188609-12.2475692 9.10714191-19.1836871 18.80951911-20.7571799-2.9151306-13.27634631-.0237936-20.61691126 8.704445-21.86782844 8.8065957-1.2621472 12.6020689 7.08093805 11.4549274 24.81723494 7.6544637 5.2947522 11.4897385 15.0132463 11.5218963 29.1284802 1.5524267 2.8142668 3.0854621 11.5955241 4.625256 26.4136216l.0213919.205863-7.3152256 2.1933829-.1010381-.1620122c-1.5186336-2.4350927-4.0036434-10.4576065-7.479014-24.1202462l-3.2526271 17.0437849-.1654985.032691c-6.851073 1.3532975-11.9890735 1.9051476-15.4224637 1.6533613-3.3813093-.247967-8.2324361-1.5043539-14.5614291-3.7681874z" stroke="#e59e92" stroke-width=".5"/><path d="m39.8587551 77.1806648 3.4321289-17.984375c3.6119849 14.2939454 6.1871802 22.6743165 7.725586 25.1411133l6.934082-2.0791015c-1.5459098-14.8769532-3.0880676-23.6682943-4.6264734-26.3740235-.0205021-14.1477864-3.8640865-23.8372396-11.5307532-29.0683593 1.167608-17.69724572-2.5526336-25.92901963-11.1607248-24.69532177-8.6080913 1.23369786-11.4208251 8.50907577-8.4382016 21.82613367-9.7424262 1.4730721-16.03164484 8.3423129-18.867656 20.6077224-2.83601117 12.2654096-4.4449255 28.111357-4.826743 47.5378424l9.27097364-1.0537329 1.94174524-16.0686454c6.45398982 2.3235664 11.38409102 3.6102462 14.79030372 3.8600394 3.4062127.2497933 8.5247902-.2999706 15.3557325-1.6492918z" fill="#fff" mask="url(#r)"/><path d="m14 61.4194336c14.5286206 2.7496745 24.5069417 3.0008138 29.9349635.753418l.0650365-3.1728516c-5.2795216 2.7093099-15.2795216 2.7093099-30 0z" fill="#fbf0eb" stroke="#ebb599"/><path d="m33.1732083 2.69628985c4.6944203 0 8.5 3.80557962 8.5 8.49999995v6.25c0 1.7949255-1.4550746 3.25-3.25 3.25h-10.5c-1.7949255 0-3.25-1.4550745-3.25-3.25v-6.25c0-4.69442033 3.8055796-8.49999995 8.5-8.49999995z" fill="#ebb599"/><path d="m31.9232083 6.19628985h2.5c4.0040644 0 7.25 3.24593556 7.25 7.24999995v4c0 1.7949255-1.4550746 3.25-3.25 3.25h-10.5c-1.7949255 0-3.25-1.4550745-3.25-3.25v-4c0-4.00406439 3.2459355-7.24999995 7.25-7.24999995z" fill="#ebb599"/><path d="m31.4232083 6.19628985h3.5c3.727922 0 6.75 3.02207793 6.75 6.74999995 0 3.7279221-3.022078 6.75-6.75 6.75h-3.5c-3.7279221 0-6.75-3.0220779-6.75-6.75 0-3.72792202 3.0220779-6.74999995 6.75-6.74999995z" fill="#fff"/><g fill="#fbf0eb"><path d="m22.6390734 18.7845869c-5.4791249-1.2401803-9.2328031-.5017093-11.2610348 2.2154131-2.02823165 2.7171224-3.7380283 7.9350911-5.12938995 15.6539061 5.30238025-9.5920764 10.76585515-14.3881146 16.39042475-14.3881146.987758-.0652355.987758-1.2256371 0-3.4812046z" stroke="#ebb599"/><rect height="8" rx="3.25" stroke="#e7a79d" stroke-width=".5" width="8.5" x=".423208" y="87.94629"/><path d="m55.9939657 90.317455.2668089-.0836033.5601106 2.8815192c.1580714.8132066.9454477 1.3442986 1.7586543 1.1862273l2.7558313-.5356794c.7048803-.1370148 1.2137865-.7543674 1.2137865-1.4724407l.0148317-5.2623597-2.3535023-6.5245602c-.2509141-.6956035-.971335-1.1045677-1.6972231-.9634694l-2.7004545.5249152c-.4670586.090787-.854876.3930572-1.0607798.8122139l-.0789149.1606464-.1775074-.0229342c-.1578553-.0203952-.3188863-.0154421-.4787415.0156306-.8132066.1580714-1.3442986.9454477-1.1862273 1.7586543l1.2402585 6.3805767c.1580714.8132066.9454477 1.3442986 1.7586543 1.1862273.0558898-.0108639.1107433-.0247463.1644147-.041564z" stroke="#e7a79d" stroke-width=".5"/><path d="m87.6273098 147.503907 19.3339842-9.095703c2.813477-3.141927 1.859863-3.927409-2.86084-2.356445-4.7207028 1.570963-6.8085934 2.356445-6.2636715 2.356445l-72.7490235 2.976888c-13.5647786.09158-21.27506507 2.131185-23.13085934 6.118815-1.85579427 3.98763-.65836588 7.080566 3.59228516 9.278809 2.09635417.657552 5.72916668.657552 10.89843748 0 5.1692709-.657552 28.8958334-3.750489 71.1796875-9.278809z" stroke="#e59e92" stroke-width=".5"/><path d="m16.1826172 42.246582c2.027757-9.3880208 1.1335513-14.7018229-2.6826172-15.9414062l2.2954102-1.2294922c2.5709635 1.9342448 3.8564453 4.1821289 3.8564453 6.7436523 0 2.5615235-.3347982 6.0372722-1.0043946 10.4272461z" stroke="#ebb599"/><path d="m16.5759277 42.246582c14.0443333 2.7496745 23.6900437 3.0008138 28.9371314.753418l.0628686-3.1728516c-5.1035375 2.7093099-14.7702042 2.7093099-29 0z" stroke="#ebb599"/><path d="m43.6040039 25.0754785c1.8736972 12.6163477 2.2716464 19.9245215 1.1938477 21.9245215 2.7412109-1.6914062 3.3863932-8.1223958 1.9355468-19.2929688-.7516276-.9163411-1.7947591-1.7935253-3.1293945-2.6315527z" stroke="#ebb599"/></g><path d="m11.2250977 73.7480469 3.5891726-21.5146485" stroke="#efc5be"/><path d="m33.1826172 8.01182314c2.665113.11070031 5.2429125.99533568 7.7333984 2.65390616v3.7923837c-.3270607 1.7024734-1.6159604 2.5537101-3.8666992 2.5537101s-3.5396385-.8512367-3.8666992-2.5537101c-.7658628 1.7024734-2.29223 2.5537101-4.5791016 2.5537101s-3.4303073-1-3.4303073-3v-4c2.6744929-1.4440336 5.3442959-2.11070027 8.0094089-1.99999996z" fill="#fbf0eb" stroke="#ebb599"/></g><path d="m189.975586 233.893555c17.319336-9.810829 20.405924-21.775347 9.259766-35.893555-16.719239-21.177311-13.085938-51.156727-3.370118-65.828363l7.647461-10.749762c-17.80013 26.874565-17.80013 51.067274 0 72.578125 17.800131 21.510851 13.287761 34.808703-13.537109 39.893555z" fill="#fbf0eb"/><path d="m128.489258 190.503418-1.14502-9.503418" stroke="#f2cfbd"/><path d="m135.502441 222.41748-5.599609.75293" stroke="#edbda4"/><path d="m170.601074 221c-2.489909.421875-4.652181.894368-6.486816 1.41748" stroke="#edbda4"/><g fill="#fff"><path d="m61.5 45.1231864-2.6450336 3.0173901 2.0523481-3.4480013-3.6870688-1.5831517 3.9134545.8864081.3662998-3.9958316.3662998 3.9958316 3.9134545-.8864081-3.6870688 1.5831517 2.0523481 3.4480013z" opacity=".4" stroke="#f5b396" transform="matrix(.99756405 .06975647 -.06975647 .99756405 3.253974 -4.181623)"/><path d="m52.25 35.769322-2.2041947 2.5144917 1.7102901-2.8733344-3.0725573-1.319293 3.2612121.7386734.3052498-3.3298597.3052498 3.3298597 3.2612121-.7386734-3.0725573 1.319293 1.7102901 2.8733344z" opacity=".4" stroke="#f5b396" transform="matrix(.99756405 .06975647 -.06975647 .99756405 2.586194 -3.558909)"/><path d="m83.5 127.123186-2.6450336 3.01739 2.0523481-3.448001-3.6870688-1.583151 3.9134545.886408.3662998-3.995832.3662998 3.995832 3.9134545-.886408-3.6870688 1.583151 2.0523481 3.448001z" opacity=".4" stroke="#f5b396" transform="matrix(.99756405 .06975647 -.06975647 .99756405 9.027596 -5.516518)"/><path d="m231 47.4854911-2.645034 3.0173901 2.052349-3.4480013-3.687069-1.5831517 3.913454.8864081.3663-3.9958316.3663 3.9958316 3.913454-.8864081-3.687069 1.5831517 2.052349 3.4480013z" opacity=".4" stroke="#f5b396" transform="matrix(.99756405 .06975647 -.06975647 .99756405 3.831654 -15.999591)"/><path d="m287.5 132.123186-2.645034 3.01739 2.052349-3.448001-3.687069-1.583151 3.913454.886408.3663-3.995832.3663 3.995832 3.913454-.886408-3.687069 1.583151 2.052349 3.448001z" opacity=".4" stroke="#f5b396" transform="matrix(.99756405 .06975647 -.06975647 .99756405 9.873312 -19.734659)"/><path d="m218.5 144.123186-2.645034 3.01739 2.052349-3.448001-3.687069-1.583151 3.913454.886408.3663-3.995832.3663 3.995832 3.913454-.886408-3.687069 1.583151 2.052349 3.448001z" opacity=".4" stroke="#f5b396" transform="matrix(.99756405 .06975647 -.06975647 .99756405 10.542309 -14.892231)"/><g transform="translate(131.5 222)"><path d="m1.09765411 20.7978276c47.11802679-16.7399089 74.83889339-23.37451177 83.16259979-19.90380864 8.3237064 3.47070312 9.3845788 8.74148509 3.1826172 15.81234594z" stroke="#ecbba2"/><path d="m0 22.3998783 13.319336-4.6870117 74.0249023-2.8989258-1.0585938 4.5014649z"/></g></g></g></svg>