<svg height="308" viewBox="0 0 218 308" width="218" xmlns="http://www.w3.org/2000/svg"><g fill="none" fill-rule="evenodd"><path d="m37 106h90v89h-90z" fill="#fbf0eb"/><path d="m112 127h23v68h-23z" fill="#fbf0eb"/><path d="m45 98h30v31h-30z" fill="#fbf0eb"/><path d="m48 195h79v14h-79z" fill="#fbf0eb"/><path d="m61 203h51v14h-51z" fill="#fbf0eb"/><g fill="#ebb499"><path d="m165 121h15v8h-15z"/><path d="m180 105h8v16h-8z"/><path d="m187 89h8v16h-8z"/><path d="m180 60h8v16h-8z"/><path d="m210 30h8v38h-8z"/><path d="m187 68h23v8h-23z"/><path d="m180 30h16v8h-16z"/><path d="m202 23h8v8h-8z"/><path d="m195 37h8v52h-8z"/><path d="m8 7h7v23h-7z"/><path d="m15 0h7v7h-7z"/><path d="m23 7h7v38h-7z"/><path d="m30 0h15v7h-15z"/><path d="m37 15h8v23h-8z"/><path d="m15 30h30v8h-30z"/><path d="m15 45h7v23h-7z"/><path d="m8 68h7v15h-7z"/><path d="m0 82h8v15h-8z"/><path d="m8 98h15v8h-15z"/><path d="m23 106h22v7h-22z"/><path d="m30 271h23v7h-23z"/><path d="m22 278h8v7h-8z"/><path d="m30 301h8v7h-8z"/><path d="m53 202h8v8h-8z"/><path d="m112 202h8v8h-8z"/><path d="m61 210h8v8h-8z"/><path d="m104 210h8v8h-8z"/><path d="m135 271h30v7h-30z"/><path d="m45 98h8v8h-8z"/><path d="m53 90h20v8h-20z"/><path d="m37 106h8v23h-8z"/><path d="m127 113h8v16h-8z"/><path d="m29 129h8v45h-8z"/><path d="m135 129h8v44h-8z"/><path d="m37 173h8v23h-8z"/><path d="m45 195h8v46h-8z"/><path d="m120 195h8v23h-8z"/><path d="m127 218h8v23h-8z"/><path d="m135 241h8v14h-8z"/><path d="m142 255h8v30h-8z"/><path d="m37 241h8v60h-8z"/><path d="m14 285h8v23h-8z"/><path d="m53 278h8v23h-8z"/><path d="m128 278h8v23h-8z"/><path d="m150 285h8v23h-8z"/><path d="m165 278h8v15h-8z"/><path d="m127 173h8v23h-8z"/><path d="m105 113h60v8h-60z"/><path d="m69 218h36v8h-36z"/></g><path d="m67 23h53v90h-53z" fill="#fbf0eb"/><path d="m67 67h53v30h-53z" fill="#a26d53"/><path d="m75 75h37v30h-37z" fill="#a26d53"/><path d="m83 52h7v7h-7z" fill="#a26d53"/><path d="m67 67h8v8h-8z" fill="#ebb499"/><path d="m67 90h8v8h-8z" fill="#ebb499"/><path d="m83 67h8v8h-8z" fill="#ebb499"/><path d="m82 97h8v8h-8z" fill="#ebb499"/><path d="m97 67h8v8h-8z" fill="#ebb499"/><path d="m97 97h8v8h-8z" fill="#ebb499"/><path d="m112 67h8v8h-8z" fill="#ebb499"/><path d="m112 90h8v8h-8z" fill="#ebb499"/><path d="m112 105h15v8h-15z" fill="#ebb499"/><path d="m98 52h7v7h-7z" fill="#a26d53"/><path d="m75 121h37v8h-37z" fill="#ebb499"/><path d="m67 113h16v8h-16z" fill="#ebb499"/><path d="m60 106h15v7h-15z" fill="#ebb499"/><path d="m60 23h7v90h-7z" fill="#ebb499"/><path d="m120 23h7v90h-7z" fill="#ebb499"/><path d="m75 15h37v8h-37z" fill="#ebb499"/><path d="m82 81h23v16h-23z" fill="#c89379"/><path d="m52 22h23v8h-23z" fill="#ebb499"/><path d="m112 22h22v8h-22z" fill="#ebb499"/><path d="m105 30h22v8h-22z" fill="#ebb499"/><path d="m61 30h22v8h-22z" fill="#ebb499"/><path d="m98 37h15v8h-15z" fill="#ebb499"/><path d="m75 37h15v8h-15z" fill="#ebb499"/></g></svg>