<svg height="110" viewBox="0 0 243 110" width="243" xmlns="http://www.w3.org/2000/svg"><g fill="#fff" fill-rule="evenodd"><path d="m44.9216566 24.9245901v24.9329598h24.6001511v-13.5684738h-8.6603414v-22.7219973l8.6603414-.0027899v-13.5642889h-33.7304016l-1.5141513 25.0306047-3.4336337-.0041847-1.4454513-25.02642h-29.39542179v13.5670788h8.66034139v22.7219973h-8.6630894v13.5684738h16.4536868v-24.9329598l3.4267637-.214819 3.0420428 25.1449889h15.599057l2.9747166-25.1380143z"/><path d="m80.3893031 35.0565303c-3.657791-.0069908-6.6134543-2.9445444-6.6232644-6.5965624.0098101-3.6058785 2.9654734-6.5308486 6.6232644-6.5364412 3.654988.0055926 6.6106513 2.9305627 6.6176586 6.5364412-.0070073 3.652018-2.9626706 6.5895716-6.6176586 6.5965624zm22.5759979-13.7244292h4.864442v-13.60977937h-13.6361331v7.39351897l-3.0089184-3.0661852c-2.9248313-2.97110961-6.9147665-4.91736119-12.0721116-4.92714838-2.2437254 0-4.4033637.34814414-6.4326669.98291298v8.2058552h-8.8333549v15.7755436h8.8333549v16.7738363c2.0307046.6417597 4.1903429.9927001 6.4326669.9968947 5.1391262-.0097872 9.1346672-2.0161601 12.0721116-4.9942606l3.0089184-3.0675833v7.3879263h13.4945861c-4.302459-4.0463018-4.822398-9.9130199-4.844821-13.1050403.005605-1.20662.078481-1.9881966.121926-2.3531188z"/><path d="m117.188529 49.8575499h11.862573c-4.528034-4.0365086-4.887335-10.6240906-4.934016-13.6974531 0-.9013699.046681-1.5415953.066485-1.7830838v-12.4900105h6.34717v-13.66235304h-6.34717v-8.22464946l-17.772641 2.99895037v1.71288363h5.008988v20.6893879h-5.004744v13.6932411c0 5.9375286 4.808119 10.7518548 10.773355 10.7630869"/><path d="m137.049555 49.8575499h13.34456v-13.656737h-6.345457v-14.3138104h6.345457v-13.66235304h-6.345457v-8.22464946l-17.774354 2.99895037v1.71288363h6.413368v20.6893879h-6.413368v13.6932411c.002829 5.9375286 4.808965 10.7518548 10.775251 10.7630869"/><path d="m131.760214 109.088319h13.34173v-13.6567369h-6.346872v-14.3110024l6.346872-.002808v-13.662353h-6.346872v-8.2246495l-17.772939 2.9989504v36.0969166c0 3.1351388.872943 5.8153808 2.557991 7.6742808 1.689292 1.850475 4.240208 3.071958 8.22009 3.087402"/><path d="m238.306044 95.7310379v-15.5118587c-.010986-6.893549-5.611324-12.4303598-12.440769-12.4414014-4.721422 0-8.83035 2.5817038-10.883441 6.4267112l-1.481795 2.7807643-1.533982-2.7478071c-2.127249-3.8134235-6.280123-6.4678518-10.898547-6.4596684-3.684577-.0123031-7.083507 2.0255509-9.405765 4.7486401l-3.024017 3.5470194-.002747-7.7064935h-17.994413c6.633062 4.3558441 11.023518 11.8275175 11.023518 20.3648073-.001374 8.4892271-4.34651 15.9705129-10.926014 20.3565679h21.05139v-13.3572811h-3.151734v-10.5257079c.004119-2.2108793 1.74547-4.1292634 4.066355-4.1375027 2.318139.0082393 4.062236 1.9266234 4.064983 4.1375027v23.880243h19.819535v-13.3545351h-3.153108v-10.5257079c.030213-2.2809134 1.793536-4.0963062 4.067729-4.1375027 2.287926.0205983 4.118541 1.8469768 4.137768 4.1375027v23.882989l21.35901-.002746v-13.3545351z"/><path d="m157.924966 94.2882135c-3.569512-.0069911-6.474768-2.9488354-6.477542-6.5967783.012481-3.5990054 2.90803-6.5212747 6.477542-6.536655 3.616662.0055928 6.54272 2.9306586 6.55104 6.536655-.00832 3.6507393-2.934378 6.5897872-6.55104 6.5967783m0-27.9349371c-3.398941.0013982-6.596803.8235486-9.438268 2.2511261v15.4586648h-6.222379v7.2539394h6.222379v15.4978153c2.842852 1.435966 6.039327 2.267904 9.438268 2.273497 11.705616-.020973 21.207675-9.5959493 21.228476-21.3968838-.020801-11.8079255-9.51454-21.3381588-21.228476-21.3381588"/><path d="m116.550214 95.0308336c0-.6626283.023707-1.1201906.034864-1.3029365v-34.4971279h-21.1415678v4.9969151h6.0245098l.209185 20.2820066h-6.0579799v9.3883971l-.0167347.1171806c.0083673 0-.1004085.7072685-.1004085 1.9181346-.009762 2.1190156.3584025 5.5577078 2.0402449 8.2542568 1.70555 2.671438 4.4667842 4.851834 10.3713612 4.900659h13.068445c-1.133779-1.188546-1.981673-2.575183-2.5646-3.97856-1.663713-3.851614-1.858952-7.9780448-1.867319-10.0789254"/><path d="m71.8503293 94.2872995c-3.5507723-.0069908-6.4226804-2.9445444-6.4294826-6.5965624.0095231-3.6058785 2.8787103-6.5308485 6.4294826-6.5364412 3.5480513.0055927 6.4172385 2.9305627 6.4240408 6.5364412-.0068023 3.652018-2.8759895 6.5895716-6.4240408 6.5965624m22.9398933 11.0553245c-2.1576724-3.617064-2.4896219-7.6381988-2.4991451-10.1115602 0-1.1534896.081627-1.9784095.1156382-2.280414v-12.6702097h5.8744193l-.1346844-13.3245528h-12.8956974v7.3907226l-2.9208842-3.0661852c-2.8392574-2.9711096-6.7124561-4.9173612-11.7189089-4.9271483-2.178079 0-4.2758916.3481441-6.245822.9829129v8.2058553h-8.6483751v15.7755435h8.6483751v16.7738359c1.9712908.64176 4.067743.992701 6.245822.996895 4.988767-.009787 8.8674075-2.01616 11.7229902-4.99426l2.9168029-3.067584v7.387927h12.1188809c-1.0516271-.922792-1.9250355-1.957437-2.5794115-3.071778"/><path d="m61.3920126 95.520225h-8.8304597v-22.7213617h8.8304597v-13.5680941h-27.9888205v13.5680941h3.340767v5.0536862h-11.7128262v-5.0536862h3.2629778v-13.5680941h-27.91103135v13.5680941h8.75822687v22.7213617h-8.75822687v13.568094h27.91103135v-13.568094h-3.2629778v-5.0564759h11.7128262v5.0564759h-1.7391436l-1.5988452-.0027898v13.5708838l27.9860423-.00279z"/></g></svg>